<?xml version="1.0" standalone="no"?>
<!DOCTYPE svg PUBLIC "-//W3C//DTD SVG 1.1//EN" "http://www.w3.org/Graphics/SVG/1.1/DTD/svg11.dtd" >
<svg xmlns="http://www.w3.org/2000/svg">
<metadata></metadata>
<defs>
<font id="nerisblack_italic" horiz-adv-x="434" >
<font-face units-per-em="1000" ascent="755" descent="-245" />
<missing-glyph horiz-adv-x="200" />
<glyph horiz-adv-x="1000" />
<glyph horiz-adv-x="1000" />
<glyph unicode="&#xd;" horiz-adv-x="485" />
<glyph unicode=" "  horiz-adv-x="200" />
<glyph unicode="&#x09;" horiz-adv-x="200" />
<glyph unicode="&#xa0;" horiz-adv-x="200" />
<glyph unicode="!" horiz-adv-x="294" d="M33 92q15 83 96 83q47 0 69.5 -27.5t14.5 -75.5q-16 -83 -97 -83q-46 0 -68.5 28t-14.5 75zM91 240q4 35 10 134.5t12 138.5l33 186q2 12 14 12h143q14 0 12 -14l-33 -184q-7 -41 -38 -143.5t-38 -132.5q-2 -11 -14 -11h-89q-14 0 -12 14z" />
<glyph unicode="&#x22;" d="M117 475q1 15 2 70t4 77l17 94q2 12 14 12h102q14 0 11 -14l-16 -92q-4 -22 -23.5 -80.5t-22.5 -68.5q-3 -11 -14 -11h-61q-13 0 -13 13zM309 475q1 15 2 70t4 77l17 94q2 12 14 12h102q14 0 11 -14l-16 -92q-4 -22 -23.5 -80.5t-22.5 -68.5q-3 -11 -14 -11h-61 q-13 0 -13 13z" />
<glyph unicode="#" horiz-adv-x="763" d="M40 154l15 114q1 12 14 12h99l20 149h-96q-14 0 -12 14l13 113q1 12 13 12h102l17 129q1 12 14 12h120q14 0 12 -14l-17 -127h116l17 129q1 12 14 12h120q14 0 12 -14l-17 -127h95q14 0 12 -14l-13 -113q-2 -12 -13 -12h-101l-20 -149h98q14 0 12 -14l-15 -114 q-1 -12 -14 -12h-101l-17 -128q-1 -12 -14 -12h-120q-14 0 -12 14l17 126h-116l-17 -128q-1 -12 -14 -12h-120q-14 0 -12 14l17 126h-96q-14 0 -12 14zM314 280h116l20 149h-116z" />
<glyph unicode="$" horiz-adv-x="618" d="M12 65l55 106q7 11 17 7l59 -20q75 -25 144 -25q121 0 121 73q0 45 -73 73l-85 34q-84 34 -119 69.5t-35 95.5q0 54 19 100t69.5 85t127.5 51l17 99q1 12 14 12h134q14 0 12 -14l-18 -100q38 -8 77 -22l62 -21q14 -5 6 -17l-57 -107q-7 -11 -17 -7l-56 19q-57 19 -111 19 q-55 0 -85.5 -19.5t-30.5 -55.5q0 -18 16 -32t54 -29l79 -31q86 -34 124.5 -73t38.5 -101q0 -55 -17.5 -101t-67.5 -85.5t-129 -52.5l-17 -97q-2 -12 -14 -12h-134q-14 0 -12 14l17 96q-49 8 -114 30l-64 21q-13 5 -7 18z" />
<glyph unicode="%" horiz-adv-x="797" d="M59 16l575 678q6 7 16 7h117q8 0 10.5 -4.5t-3.5 -11.5l-575 -678q-6 -7 -16 -7h-117q-8 0 -10.5 4.5t3.5 11.5zM93 556q13 73 63.5 115t123.5 42q72 0 109 -42t24 -115q-13 -72 -64.5 -114.5t-123.5 -42.5t-108.5 42.5t-23.5 114.5zM209 556q-4 -22 5 -36t30 -14 q19 0 33.5 14.5t18.5 35.5q4 24 -5 37.5t-29 13.5q-44 0 -53 -51zM421 145q13 72 64 114t123 42q73 0 109 -42t23 -114q-13 -73 -63.5 -114.5t-123.5 -41.5q-72 0 -108.5 41.5t-23.5 114.5zM538 145q-4 -22 5.5 -36t28.5 -14q44 0 53 50q9 48 -36 48q-19 0 -33 -12.5 t-18 -35.5z" />
<glyph unicode="&#x26;" horiz-adv-x="744" d="M26 145q0 70 35 120t116 95l25 14q-32 60 -32 114q0 104 71 168t189 64q62 0 124 -21l57 -21q13 -5 7 -17l-57 -108q-7 -11 -17 -7l-56 20q-36 12 -82 12q-39 0 -62 -18.5t-23 -50.5q0 -36 34 -82l125 -174l30 17q21 13 30.5 22.5t12.5 23.5l5 27h-61q-14 0 -12 14 l20 110q1 12 14 12h195q14 0 12 -14l-26 -149q-10 -59 -36.5 -92.5t-88.5 -69.5l-18 -10l92 -128q4 -7 2 -11.5t-10 -4.5h-161q-11 0 -16 8l-42 58l-29 -17q-108 -60 -194 -60q-82 0 -127.5 41.5t-45.5 114.5zM178 170q0 -40 46 -40q44 0 108 39l11 6l-66 90l-49 -28 q-50 -28 -50 -67z" />
<glyph unicode="'" horiz-adv-x="242" d="M117 475q1 15 2 70t4 77l17 94q2 12 14 12h102q14 0 11 -14l-16 -92q-4 -22 -23.5 -80.5t-22.5 -68.5q-3 -11 -14 -11h-61q-13 0 -13 13z" />
<glyph unicode="(" horiz-adv-x="384" d="M79 178q0 143 47 295.5t143 282.5q5 8 16 8h130q8 0 10.5 -4.5t-2.5 -11.5q-105 -154 -154 -284.5t-49 -282.5q0 -122 46 -267q3 -15 -11 -15h-111q-11 0 -15 10q-50 128 -50 269z" />
<glyph unicode=")" horiz-adv-x="384" d="M-9 -85q105 154 154 284.5t49 282.5q0 122 -46 267q-3 15 11 15h111q11 0 15 -10q50 -128 50 -269q0 -143 -47 -295.5t-143 -282.5q-5 -8 -16 -8h-130q-8 0 -10.5 4.5t2.5 11.5z" />
<glyph unicode="*" horiz-adv-x="426" d="M38 526v73q0 13 13 13h44q23 0 48 -9q3 -1 4.5 1.5t-1.5 4.5q-24 21 -34 37l-36 66q-9 16 9 16h80q11 0 15 -9l14 -24q12 -26 16 -50q1 -4 3.5 -4t3.5 5q4 27 15 47l14 26q4 9 15 9h80q8 0 10.5 -4.5t-1.5 -11.5l-37 -66q-15 -26 -34 -37q-5 -3 0 -6q1 -1 3 0q20 9 52 9 h41q13 0 13 -13v-73q0 -13 -13 -13h-42q-27 0 -51 9q-3 1 -4.5 -1.5t1.5 -4.5q20 -13 34 -36l38 -68q7 -16 -10 -16h-78q-11 0 -15 9l-13 24q-16 28 -18 52q-1 8 -5 4q-2 -1 -2 -4q-2 -22 -18 -52l-14 -24q-4 -9 -15 -9h-78q-17 0 -10 15l37 68q16 24 34 37q3 2 1.5 4.5 t-4.5 1.5q-20 -9 -48 -9h-44q-13 0 -13 13z" />
<glyph unicode="+" horiz-adv-x="628" d="M59 204l20 113q1 12 14 12h163l31 176q1 12 14 12h120q14 0 12 -14l-31 -174h160q14 0 11 -14l-20 -113q-1 -12 -14 -12h-162l-31 -176q-2 -12 -14 -12h-120q-14 0 -12 14l31 174h-161q-14 0 -11 14z" />
<glyph unicode="," horiz-adv-x="275" d="M-10 -148l71 97q30 39 -2 49q-19 6 -31 25t-12 43q0 26 7 48.5t31.5 41.5t64.5 19q37 0 59 -22t22 -59q0 -79 -73 -179l-51 -71q-5 -8 -16 -8h-62q-8 0 -10.5 4.5t2.5 11.5z" />
<glyph unicode="-" d="M60 205l20 112q2 12 14 12h275q14 0 11 -14l-20 -112q-2 -12 -14 -12h-275q-14 0 -11 14z" />
<glyph unicode="." horiz-adv-x="283" d="M23 92q15 83 96 83q47 0 69.5 -27.5t14.5 -75.5q-16 -83 -97 -83q-46 0 -68.5 28t-14.5 75z" />
<glyph unicode="/" horiz-adv-x="584" d="M-2 -85l474 842q4 9 15 9h131q8 0 10.5 -4.5t-1.5 -11.5l-475 -842q-4 -9 -15 -9h-130q-8 0 -10.5 4.5t1.5 11.5z" />
<glyph unicode="0" horiz-adv-x="656" d="M57 258q0 57 11.5 118t38.5 123.5t66 111t98.5 79t130.5 30.5q112 0 173.5 -71.5t61.5 -197.5q0 -59 -11.5 -120t-38 -123t-65 -110t-98 -78.5t-131.5 -30.5q-113 0 -174.5 71t-61.5 198zM217 256q0 -127 81 -127q45 0 81.5 35t56.5 87.5t30.5 105t10.5 96.5 q0 126 -80 126q-46 0 -82.5 -34.5t-56.5 -87t-30.5 -105t-10.5 -96.5z" />
<glyph unicode="1" horiz-adv-x="397" d="M87 597q-3 12 9 16l286 103q7 3 14 -0.5t11 -11t3 -14.5l-120 -678q-2 -12 -14 -12h-133q-14 0 -12 14l70 395q10 52 20 77q5 13 0.5 16t-17.5 -2l-72 -25q-13 -5 -16 8z" />
<glyph unicode="2" horiz-adv-x="595" d="M13 14l12 66q19 109 58.5 174.5t114.5 107.5l174 97q57 33 57 67q0 26 -17.5 39.5t-47.5 13.5q-57 0 -129 -23l-71 -23q-13 -3 -16 10l-22 113q-1 12 10 16l68 22q79 26 167 26q104 0 161 -46t57 -128q0 -67 -33 -118t-120 -100l-168 -94q-63 -35 -74 -96h301 q14 0 11 -14l-20 -112q-2 -12 -14 -12h-447q-14 0 -12 14z" />
<glyph unicode="3" horiz-adv-x="606" d="M17 63l54 102q7 11 17 7l59 -23q50 -20 112 -20q63 0 98.5 27.5t35.5 75.5q0 31 -21.5 50.5t-59.5 19.5h-63q-14 0 -11 14l20 112q2 12 14 12h54q46 0 73 21t27 56q0 62 -72 62q-49 0 -111 -19l-63 -20q-14 -3 -15 10l-18 115q-1 12 10 16l59 18q68 21 144 21 q109 0 167.5 -45.5t58.5 -126.5q0 -56 -21.5 -96t-81.5 -73q-10 -5 -10.5 -9t10.5 -10q70 -36 70 -137q0 -44 -16 -83.5t-49.5 -74.5t-94 -55.5t-141.5 -20.5q-78 0 -161 31l-67 26q-13 5 -7 17z" />
<glyph unicode="4" horiz-adv-x="648" d="M28 176l21 122q3 10 8 15q32 30 96 102l176 196q35 40 75 90q5 8 16 8h187q14 0 12 -14l-70 -395h60q14 0 11 -14l-20 -112q-2 -12 -14 -12h-61l-27 -150q-2 -12 -14 -12h-133q-14 0 -12 14l26 148h-325q-14 0 -12 14zM236 319q-8 -7 -6.5 -13t10.5 -6h149l16 89 q11 61 28 120q2 7 0.5 10t-6.5 1.5t-10 -7.5l-127 -142q-24 -27 -54 -52z" />
<glyph unicode="5" horiz-adv-x="615" d="M18 65l54 103q7 11 17 7l61 -23q64 -23 120 -23q67 0 102 36t35 84q0 65 -78 65q-30 0 -81 -7l-116 -15q-11 -2 -22 12q-8 8 -5 17l65 376q2 12 14 12h409q17 0 10 -15l-53 -114q-4 -10 -15 -10h-228l-12 -70q-5 -23 -8 -35q-3 -6 -1.5 -12t10.5 -5l28 4q17 2 42 2 q95 0 148 -49.5t53 -142.5q0 -53 -16.5 -99.5t-50.5 -86.5t-94.5 -63.5t-141.5 -23.5q-82 0 -167 32l-73 27q-13 5 -6 17z" />
<glyph unicode="6" horiz-adv-x="636" d="M43 189q0 95 43 186t171 233l85 94q6 7 16 7h169q8 0 10 -5t-3 -11l-142 -158q-34 -39 -70 -63q-10 -6 -7.5 -12t14.5 -1q39 12 84 12q76 0 127 -53t51 -142q0 -121 -79 -204t-230 -83q-114 0 -176.5 52.5t-62.5 147.5zM203 213q0 -84 89 -84q65 0 101 37t38 93 q3 77 -88 77q-66 0 -103 -36t-37 -87z" />
<glyph unicode="7" horiz-adv-x="613" d="M89 16l249 434q27 49 73 101q8 11 5.5 15t-16.5 4h-284q-14 0 -11 14l20 113q2 12 14 12h506q11 0 16 -10t-1 -20q-61 -81 -114 -171l-287 -499q-5 -9 -15 -9h-146q-8 0 -10.5 4.5t1.5 11.5z" />
<glyph unicode="8" horiz-adv-x="639" d="M40 167q0 138 149 201q19 9 3 17q-70 36 -70 119q0 97 76.5 156.5t203.5 59.5q101 0 158 -43.5t57 -118.5q0 -60 -32.5 -104t-90.5 -69q-8 -4 -9 -9t6 -8q91 -44 91 -139q0 -108 -83.5 -174t-220.5 -66q-113 0 -175.5 47.5t-62.5 130.5zM200 206q0 -77 89 -77 q133 0 133 103q0 33 -25 51.5t-69 18.5q-60 0 -94 -26t-34 -70zM279 495q0 -54 75 -54q49 0 75.5 19.5t26.5 54.5q0 64 -69 64q-52 0 -80 -21.5t-28 -62.5z" />
<glyph unicode="9" horiz-adv-x="636" d="M80 433q0 121 79 204t230 83q114 0 176.5 -52.5t62.5 -147.5t-43 -186t-171 -233l-85 -94q-6 -7 -16 -7h-169q-8 0 -10 5t3 11l142 158q34 39 70 63q10 6 7.5 12t-14.5 1q-39 -12 -84 -12q-76 0 -127 53t-51 142zM240 450q-3 -77 88 -77q66 0 103 36t37 87q0 84 -89 84 q-65 0 -101 -37t-38 -93z" />
<glyph unicode=":" horiz-adv-x="275" d="M23 92q15 83 96 83q47 0 69.5 -27.5t14.5 -75.5q-16 -83 -97 -83q-46 0 -68.5 28t-14.5 75zM81 418q15 83 96 83q47 0 69.5 -27.5t14.5 -75.5q-16 -83 -97 -83q-46 0 -68.5 28t-14.5 75z" />
<glyph unicode=";" horiz-adv-x="275" d="M-10 -145l71 97q30 39 -2 49q-19 6 -31 25t-12 43q0 26 7 48.5t31.5 41.5t64.5 19q37 0 59 -22t22 -59q0 -79 -73 -179l-51 -71q-5 -8 -16 -8h-62q-8 0 -10.5 4.5t2.5 11.5zM80 418q15 83 96 83q47 0 69.5 -27.5t14.5 -75.5q-16 -83 -97 -83q-46 0 -68.5 28t-14.5 75z " />
<glyph unicode="&#x3c;" horiz-adv-x="629" d="M63 221l13 79q1 9 11 14l511 223q7 4 11 0.5t3 -11.5l-24 -133q-1 -9 -11 -14l-295 -125l249 -124q10 -4 8 -16l-22 -124q-3 -14 -17 -8l-429 223q-10 4 -8 16z" />
<glyph unicode="=" horiz-adv-x="600" d="M39 89l20 112q1 12 14 12h441q14 0 11 -14l-20 -112q-1 -12 -14 -12h-441q-14 0 -11 14zM80 321l20 112q2 12 14 12h441q14 0 11 -14l-20 -112q-2 -12 -14 -12h-441q-14 0 -11 14z" />
<glyph unicode="&#x3e;" horiz-adv-x="629" d="M22 -7l24 133q1 9 11 14l295 125l-249 124q-10 4 -8 16l22 124q3 14 17 8l429 -223q10 -4 8 -16l-13 -79q-1 -9 -11 -14l-511 -223q-7 -4 -11 -0.5t-3 11.5z" />
<glyph unicode="?" horiz-adv-x="584" d="M111 653q-1 12 10 16l73 23q90 28 174 28q106 0 161 -43.5t55 -121.5q0 -63 -29 -107.5t-99 -90.5l-73 -46q-23 -17 -28 -47l-6 -35q-1 -12 -14 -12h-132q-14 0 -12 14l6 33q10 56 35 94.5t79 71.5l78 49q32 19 32 45q0 18 -22.5 31.5t-56.5 13.5q-62 0 -125 -20l-68 -21 q-13 -5 -16 10zM158 91q15 83 96 83q47 0 69.5 -27.5t14.5 -75.5q-16 -83 -97 -83q-46 0 -68.5 28t-14.5 75z" />
<glyph unicode="@" horiz-adv-x="868" d="M52 195q0 56 15.5 113.5t50.5 114.5t85 101t125.5 71t166.5 27q151 0 242 -83.5t91 -206.5q0 -88 -45 -150t-137 -62q-54 0 -85 31.5t-49 102.5q-7 29 -20 46t-43 17q-36 0 -55 -22t-19 -47q0 -23 15.5 -35.5t43.5 -12.5q19 0 38 5q8 2 11 -10q14 -53 48 -81 q14 -11 -2 -16l-49 -13q-33 -9 -70 -9q-78 0 -121 37t-43 105q0 37 12 74t36.5 70.5t68.5 54.5t100 21q104 0 150 -70q16 -26 24.5 -58.5t13.5 -48.5t17 -16q15 0 22 24.5t7 48.5q0 77 -62 128.5t-162 51.5q-73 0 -131.5 -29t-91.5 -74.5t-50 -94t-17 -93.5q0 -87 55.5 -138 t151.5 -51q64 0 130 18l111 29q14 5 16 -10l12 -95q1 -12 -11 -15l-116 -31q-81 -21 -164 -21q-147 0 -231.5 84t-84.5 218z" />
<glyph unicode="A" horiz-adv-x="748" d="M-10 15l207 382q93 171 150 302q4 10 15 10h186q13 0 14 -13q8 -118 42 -299l73 -383q3 -14 -11 -14h-135q-13 0 -14 12l-16 82h-294l-45 -85q-4 -9 -15 -9h-147q-17 0 -10 15zM283 235h192l-8 40q-29 176 -29 238q-1 9 -8 9t-11 -9q-33 -85 -115 -238z" />
<glyph unicode="B" horiz-adv-x="662" d="M25 14l120 683q1 12 14 12h274q103 0 157.5 -42t54.5 -118q0 -72 -33.5 -112.5t-71.5 -56.5q-26 -11 -4 -21q30 -12 54.5 -44.5t24.5 -85.5q0 -105 -77.5 -167t-210.5 -62h-290q-14 0 -12 14zM209 141h143q47 0 73.5 24t26.5 65q0 30 -22.5 47t-62.5 17h-131zM261 435 h111q51 0 79.5 21t28.5 58q0 53 -63 53h-132z" />
<glyph unicode="C" horiz-adv-x="634" d="M58 272q0 58 12.5 117.5t42.5 119.5t73.5 106.5t111.5 75.5t150 29q67 0 148 -27l40 -13q13 -5 7 -18l-55 -107q-5 -12 -16 -7l-45 15q-33 12 -90 12q-55 0 -99 -30t-68 -76.5t-36.5 -95t-12.5 -92.5q0 -148 125 -148q46 0 110 18l49 14q13 5 16 -9l22 -117 q2 -12 -10 -15l-54 -16q-66 -19 -149 -19q-128 0 -200 75.5t-72 207.5z" />
<glyph unicode="D" horiz-adv-x="694" d="M25 14l120 683q1 12 14 12h246q128 0 199 -72.5t71 -200.5q0 -58 -13 -116.5t-43 -116.5t-73.5 -102.5t-109.5 -72.5t-146 -28h-253q-14 0 -12 14zM209 141h96q53 0 95 29t65 74.5t35 93t12 91.5q0 138 -122 138h-105z" />
<glyph unicode="E" horiz-adv-x="615" d="M25 14l120 683q1 12 14 12h482q17 0 10 -15l-53 -117q-4 -10 -15 -10h-298l-24 -132h245q14 0 12 -14l-21 -115q-1 -12 -14 -12h-246l-28 -153h327q14 0 12 -14l-20 -115q-2 -12 -14 -12h-477q-14 0 -12 14z" />
<glyph unicode="F" horiz-adv-x="609" d="M25 14l120 683q1 12 14 12h481q17 0 10 -15l-53 -117q-4 -10 -15 -10h-297l-30 -166h252q14 0 12 -14l-20 -115q-1 -12 -14 -12h-254l-44 -248q-1 -12 -14 -12h-136q-14 0 -12 14z" />
<glyph unicode="G" horiz-adv-x="689" d="M58 270q0 57 12.5 116.5t42 120t72.5 107.5t110 76.5t148 29.5q74 0 148 -25l45 -15q14 -5 7 -17l-55 -108q-5 -12 -17 -7l-39 14q-37 13 -95 13q-45 0 -82.5 -20.5t-62 -52t-41 -72t-23.5 -79t-7 -74.5q0 -69 30.5 -106.5t87.5 -37.5q61 0 108 15l16 5l19 106h-107 q-17 0 -10 15l54 117q4 10 15 10h213q14 0 12 -14l-58 -328q-1 -10 -12 -13q-48 -17 -108 -38q-64 -19 -147 -19q-131 0 -203.5 75t-72.5 206z" />
<glyph unicode="H" horiz-adv-x="715" d="M25 14l120 683q1 12 14 12h136q14 0 12 -14l-46 -260h261l46 262q2 12 14 12h136q14 0 12 -14l-121 -683q-1 -12 -14 -12h-136q-14 0 -12 14l50 280h-260l-50 -282q-1 -12 -14 -12h-136q-14 0 -12 14z" />
<glyph unicode="I" horiz-adv-x="293" d="M25 14l120 683q1 12 14 12h136q14 0 12 -14l-120 -683q-1 -12 -14 -12h-136q-14 0 -12 14z" />
<glyph unicode="J" horiz-adv-x="475" d="M-2 41l56 105q6 11 17 6l27 -11q22 -8 53 -8q35 0 62.5 25t36.5 73l82 466q2 12 14 12h136q14 0 12 -14l-81 -458q-20 -117 -90 -182.5t-178 -65.5q-60 0 -116 24l-25 11q-12 5 -6 17z" />
<glyph unicode="K" horiz-adv-x="703" d="M25 14l120 683q1 12 14 12h136q14 0 12 -14l-46 -258h20q84 0 167 117l101 147q5 8 16 8h157q8 0 10.5 -4.5t-2.5 -11.5l-150 -216q-52 -73 -141 -106q-4 -2 -5 -6t3 -6q82 -40 111 -126l77 -218q5 -15 -11 -15h-140q-11 0 -15 11l-53 154q-43 125 -150 125h-20l-49 -278 q-1 -12 -14 -12h-136q-14 0 -12 14z" />
<glyph unicode="L" horiz-adv-x="576" d="M25 14l120 683q1 12 14 12h136q14 0 12 -14l-97 -551h289q14 0 12 -14l-20 -118q-1 -12 -14 -12h-440q-14 0 -12 14z" />
<glyph unicode="M" horiz-adv-x="845" d="M25 14l120 683q1 12 14 12h197q12 0 13 -12q2 -19 9 -67l21 -127q19 -109 26 -176q1 -9 6.5 -9t9.5 9q32 74 82 176l67 127q1 3 14 29.5t19 39.5q4 10 15 10h210q14 0 12 -14l-121 -683q-1 -12 -14 -12h-136q-14 0 -12 14l37 210q28 160 58 252q3 10 -3 12t-11 -8 q-8 -15 -24.5 -44.5t-19.5 -34.5l-84 -154q-4 -8 -51 -101q-4 -10 -15 -10h-121q-13 0 -14 12q-6 42 -14 94l-29 158q-4 21 -17 80q-1 6 -5 8t-7.5 -1.5t-3.5 -10.5q-5 -111 -29 -252l-37 -212q-1 -12 -14 -12h-136q-14 0 -12 14z" />
<glyph unicode="N" horiz-adv-x="732" d="M25 14l120 683q2 12 14 12h170q11 0 14 -11q7 -26 32 -105l93 -274q20 -60 29 -89q4 -12 10.5 -9.5t6.5 13.5q1 76 20 180l51 283q2 12 14 12h136q14 0 12 -14l-121 -683q-1 -12 -14 -12h-170q-11 0 -14 11q-15 54 -32 105q-10 31 -23.5 71.5t-25 74.5t-24 71t-25 74.5 t-23.5 71.5q-4 11 -11 8.5t-8 -12.5q-3 -86 -20 -182l-49 -281q-1 -12 -14 -12h-136q-14 0 -12 14z" />
<glyph unicode="O" horiz-adv-x="729" d="M58 270q0 57 12.5 116.5t41.5 120t71.5 107.5t109 76.5t146.5 29.5q128 0 199.5 -74.5t71.5 -205.5q0 -57 -12.5 -116.5t-41.5 -120t-71.5 -107.5t-108.5 -77t-146 -30q-129 0 -200.5 75t-71.5 206zM221 276q0 -68 30 -105.5t85 -37.5q54 0 96.5 31t66.5 79t36 97.5 t12 94.5q0 68 -29.5 104t-84.5 36t-98 -30.5t-66.5 -77.5t-35.5 -96.5t-12 -94.5z" />
<glyph unicode="P" horiz-adv-x="650" d="M25 14l120 683q1 12 14 12h266q104 0 162 -55.5t57 -154.5q0 -129 -87.5 -201t-242.5 -72h-90l-37 -214q-1 -12 -14 -12h-136q-14 0 -12 14zM249 367h82q71 0 110.5 31.5t39.5 88.5q0 38 -19 59t-54 21h-123z" />
<glyph unicode="Q" horiz-adv-x="729" d="M58 271q0 60 13 121t43 120.5t73 105.5t108.5 74t143.5 28q127 0 199 -74.5t72 -207.5q0 -118 -45.5 -218.5t-116.5 -139.5q-10 -5 -10 -7.5t8 -6.5q39 -17 59.5 -36t38.5 -50l35 -60q7 -10 -4 -18l-108 -69q-11 -6 -18 4l-36 61q-28 47 -68.5 69t-114.5 22 q-128 0 -200 74.5t-72 207.5zM221 278q0 -74 31 -109.5t84 -35.5q55 0 98 30.5t66.5 78t35 95.5t11.5 92q0 146 -114 146q-52 0 -94.5 -29t-67 -74.5t-37.5 -95.5t-13 -98z" />
<glyph unicode="R" horiz-adv-x="684" d="M25 14l120 683q1 12 14 12h281q102 0 157 -53.5t55 -141.5q0 -141 -148 -201q-21 -9 -5 -19q46 -32 68 -110l41 -170q3 -14 -12 -14h-135q-12 0 -15 11l-25 106q-17 71 -51.5 102.5t-113.5 31.5h-27l-42 -239q-1 -12 -14 -12h-136q-14 0 -12 14zM254 392h95 q61 0 100.5 28t39.5 73q0 35 -20.5 54.5t-55.5 19.5h-128z" />
<glyph unicode="S" horiz-adv-x="618" d="M12 65l55 106q7 11 17 7l59 -20q75 -25 144 -25q121 0 121 73q0 45 -73 73l-85 34q-84 34 -119 69.5t-35 95.5q0 45 15 86t47 77t91 57.5t138 21.5q74 0 161 -31l62 -21q14 -5 6 -17l-57 -107q-7 -11 -17 -7l-56 19q-57 19 -111 19q-55 0 -85.5 -19.5t-30.5 -55.5 q0 -18 16 -32t54 -29l79 -31q86 -34 124.5 -73t38.5 -101q0 -47 -14 -87.5t-46 -77.5t-93 -58.5t-145 -21.5q-82 0 -190 37l-64 21q-13 5 -7 18z" />
<glyph unicode="T" horiz-adv-x="653" d="M94 581l21 116q1 12 14 12h557q14 0 12 -14l-21 -116q-1 -12 -14 -12h-197l-98 -555q-2 -12 -14 -12h-136q-14 0 -12 14l98 553h-198q-14 0 -12 14z" />
<glyph unicode="U" horiz-adv-x="679" d="M64 297l71 400q1 12 14 12h135q14 0 12 -14l-72 -407q-13 -76 9 -115.5t77 -39.5q61 0 103.5 43.5t56.5 120.5l71 400q1 12 14 12h135q14 0 11 -14l-72 -407q-25 -144 -111.5 -221.5t-218.5 -77.5q-137 0 -199 81.5t-36 226.5z" />
<glyph unicode="V" horiz-adv-x="729" d="M106 695q-3 14 11 14h135q12 0 14 -12l50 -263q22 -126 24 -231q0 -6 3.5 -8.5t8.5 0t7 8.5q36 97 107 231l144 266q4 9 15 9h147q17 0 10 -15l-208 -383q-88 -166 -148 -301q-4 -10 -15 -10h-178q-11 0 -13 12q-13 142 -42 299z" />
<glyph unicode="W" horiz-adv-x="1020" d="M114 695q-2 14 13 14h133q12 0 14 -12l20 -269q8 -106 -1 -220q-2 -10 6 -10t12 10q37 117 82 220l122 271q4 10 15 10h113q11 0 13 -12l27 -269q9 -99 5 -220q-1 -10 6 -10t10 10q23 93 77 220l116 271q4 10 15 10h142q17 0 10 -15l-207 -479q-53 -123 -82 -205 q-4 -10 -15 -10h-183q-13 0 -13 13q-2 109 -7 166l-8 129q-2 59 -1 103q0 7 -3.5 9.5t-7.5 0t-6 -9.5q-31 -82 -39 -103l-53 -130q-39 -95 -65 -168q-4 -10 -15 -10h-183q-13 0 -13 13q-2 105 -10 202z" />
<glyph unicode="X" horiz-adv-x="720" d="M13 16l164 231q46 64 103 99q15 9 14 13q0 3 -4 5q-51 35 -73 98l-81 232q-5 15 11 15h139q11 0 15 -11l80 -229q7 -21 21 0l162 232q5 8 16 8h155q8 0 10.5 -4.5t-2.5 -11.5l-161 -230q-46 -65 -110 -99q-5 -3 -5.5 -8t2.5 -6q52 -35 76 -103l82 -232q5 -15 -11 -15 h-139q-11 0 -15 10l-85 233q-5 16 -17 0l-166 -235q-5 -8 -16 -8h-157q-8 0 -10 4.5t2 11.5z" />
<glyph unicode="Y" horiz-adv-x="699" d="M107 694q-5 15 11 15h140q11 0 15 -10l46 -127q36 -95 44 -156q1 -9 8 -9t11 9q48 91 94 156l92 129q5 8 16 8h158q8 0 10 -4.5t-2 -11.5l-166 -233q-57 -81 -74 -106t-45 -74t-39 -85.5t-20 -87.5l-16 -95q-2 -12 -14 -12h-136q-14 0 -12 14l16 93q9 52 11 89t-7.5 82.5 t-19.5 76.5t-37 105z" />
<glyph unicode="Z" horiz-adv-x="648" d="M14 11q-4 10 3 18q62 75 127 171l165 237q49 72 85 111q7 8 5 13.5t-11 5.5h-256q-14 0 -12 14l21 116q1 12 14 12h506q11 0 15 -10l1 -1q4 -10 -3 -18q-88 -110 -129 -170l-166 -240q-74 -102 -82 -112q-6 -8 -4 -12.5t11 -4.5h250q17 0 10 -15l-53 -116q-4 -10 -15 -10 h-466q-11 0 -15 10z" />
<glyph unicode="[" horiz-adv-x="392" d="M27 -87l147 839q2 12 14 12h214q14 0 12 -14l-19 -114q-1 -12 -14 -12h-83l-103 -586h80q14 0 12 -14l-20 -113q-1 -12 -14 -12h-214q-14 0 -12 14z" />
<glyph unicode="\" horiz-adv-x="571" d="M135 752q-3 14 12 14h119q12 0 14 -12l177 -841q3 -14 -12 -14h-118q-13 0 -14 12z" />
<glyph unicode="]" horiz-adv-x="392" d="M8 -87l19 114q1 12 14 12h83l103 586h-80q-14 0 -12 14l20 113q1 12 14 12h214q14 0 12 -14l-147 -839q-2 -12 -14 -12h-214q-14 0 -12 14z" />
<glyph unicode="^" horiz-adv-x="532" d="M67 365l211 328q4 9 15 9h106q11 0 14 -11l95 -327q3 -15 -11 -15h-138q-13 0 -14 12l-29 140l-81 -143q-5 -9 -15 -9h-144q-8 0 -10.5 4.5t1.5 11.5z" />
<glyph unicode="_" horiz-adv-x="535" d="M-94 -204l20 112q2 12 14 12h539q14 0 11 -14l-20 -112q-2 -12 -14 -12h-539q-14 0 -11 14z" />
<glyph unicode="`" horiz-adv-x="334" d="M140 713q-8 15 9 15h141q12 0 15 -11l34 -146q3 -14 -12 -14h-99q-10 0 -16 9z" />
<glyph unicode="a" horiz-adv-x="573" d="M31 178q0 55 17 109.5t51.5 104t96 80t140.5 30.5q42 0 103 -13l109 -24q11 -3 10 -16l-77 -437q-1 -12 -14 -12h-71q-12 0 -14 12l-4 32q-2 13 -5 17t-9.5 1t-19.5 -17q-53 -56 -132 -56q-85 0 -133 50t-48 139zM186 192q0 -29 15.5 -46t42.5 -17q46 0 80.5 50t51.5 136 l7 37l-16 4q-19 5 -38 5q-47 0 -81 -31t-48 -68t-14 -70z" />
<glyph unicode="b" horiz-adv-x="579" d="M24 68l114 648q2 12 14 12h133q14 0 12 -14l-20 -114q-13 -68 -46 -120q-6 -9 -2 -15t16 1q61 36 111 36q91 0 140.5 -53t49.5 -146q0 -55 -15.5 -107.5t-48 -100.5t-90.5 -77t-134 -29q-77 0 -140 27l-85 36q-11 5 -9 16zM195 146l14 -5q30 -12 54 -12q63 0 95.5 52.5 t32.5 111.5q0 68 -62 68q-46 0 -77.5 -36.5t-42.5 -102.5z" />
<glyph unicode="c" horiz-adv-x="480" d="M31 193q0 54 15.5 105.5t48 98.5t91.5 76t137 29q38 0 82 -13l57 -17q14 -5 8 -17l-51 -105q-5 -11 -17 -8l-36 11q-27 8 -48 8q-29 0 -52.5 -11.5t-38 -28.5t-24 -39.5t-13.5 -42.5t-4 -38q0 -72 71 -72q28 0 68 11l45 11q13 3 15 -11l14 -111q1 -12 -11 -15l-53 -14 q-37 -11 -85 -11q-106 0 -162.5 54t-56.5 150z" />
<glyph unicode="d" horiz-adv-x="578" d="M31 188q0 53 15 105t46 100.5t86.5 78.5t127.5 30q47 0 74 -13l24 -11l42 238q2 12 14 12h133q14 0 12 -14l-124 -702q-1 -12 -14 -12h-68q-10 0 -16 10l-9 19q-3 8 -6 10.5t-8.5 0.5t-16.5 -10q-54 -41 -124 -41q-89 0 -138.5 53t-49.5 146zM186 203q0 -74 67 -74 q42 0 71 25.5t37 71.5l21 119l-18 7q-21 9 -52 9q-43 0 -73 -28.5t-41.5 -63t-11.5 -66.5z" />
<glyph unicode="e" horiz-adv-x="516" d="M32 192q0 54 15.5 105.5t47 99t88 76.5t130.5 29q86 0 134 -39t48 -108q0 -67 -37 -108t-141 -54l-134 -17q6 -52 71 -52q39 0 81 9l58 13q13 3 15 -11l10 -104q1 -12 -11 -15l-65 -15q-51 -12 -92 -12q-106 0 -162 54t-56 149zM191 278l113 14q43 7 43 41t-42 34 q-80 0 -114 -89z" />
<glyph unicode="f" horiz-adv-x="412" d="M52 366l19 113q1 12 14 12h53l9 49q16 95 78.5 147t159.5 52q37 0 80 -14l22 -7q14 -3 7 -17l-51 -106q-5 -12 -17 -7l-13 4q-18 6 -33 6q-28 0 -49.5 -20t-26.5 -50l-7 -37h112q14 0 12 -14l-20 -113q-1 -12 -14 -12h-113l-61 -340q-1 -12 -14 -12h-133q-14 0 -12 14 l60 338h-50q-14 0 -12 14z" />
<glyph unicode="g" horiz-adv-x="573" d="M15 -183l51 106q5 12 17 7l34 -10q30 -9 66 -9q23 0 38.5 1.5t39.5 8t44.5 22.5t36.5 42q11 19 13 35q0 11 -3 11t-20 -10q-57 -32 -108 -32q-93 0 -143.5 53t-50.5 146q0 43 9.5 85.5t31.5 84t54.5 73.5t82 51.5t110.5 19.5t121 -23l104 -40q10 -4 9 -16l-71 -407 q-21 -121 -98.5 -183.5t-197.5 -62.5q-61 0 -106 13l-56 17q-14 5 -8 17zM186 201q-2 -72 62 -72q94 0 113 105l20 111l-15 6q-27 10 -54 10q-43 0 -73.5 -29t-41.5 -63.5t-11 -67.5z" />
<glyph unicode="h" horiz-adv-x="557" d="M15 14l123 702q2 12 14 12h133q14 0 12 -14l-20 -114q-13 -68 -47 -123q-5 -7 0 -12.5t14 0.5q57 37 106 37q92 0 137.5 -51.5t29.5 -139.5l-52 -299q-1 -12 -14 -12h-133q-14 0 -12 14l50 289q11 58 -36 58q-39 0 -66.5 -28.5t-37.5 -79.5l-42 -241q-2 -12 -14 -12h-133 q-14 0 -12 14z" />
<glyph unicode="i" horiz-adv-x="310" d="M52 366l19 113q1 12 14 12h198q14 0 12 -14l-82 -465q-1 -12 -14 -12h-133q-14 0 -12 14l60 338h-50q-14 0 -12 14zM144 636q0 49 25 75.5t70 26.5q40 0 61.5 -20.5t21.5 -58.5q0 -49 -25 -76.5t-70 -27.5q-39 0 -61 21.5t-22 59.5z" />
<glyph unicode="j" horiz-adv-x="310" d="M-58 -109q-3 13 8 17l17 7q76 33 89 106l58 331h-50q-14 0 -12 14l19 113q1 12 14 12h198q14 0 12 -14l-82 -467q-14 -79 -58 -135t-128 -92l-26 -11q-13 -5 -17 7zM144 636q0 49 25 75.5t70 26.5q40 0 61.5 -20.5t21.5 -58.5q0 -49 -25 -76.5t-70 -27.5q-39 0 -61 21.5 t-22 59.5z" />
<glyph unicode="k" horiz-adv-x="579" d="M16 14l80 460h-1l43 242q2 12 14 12h133q14 0 12 -14q-43 -248 -69 -396h10q40 0 88 69l65 96q5 8 16 8h153q8 0 10.5 -4.5t-2.5 -11.5l-106 -155q-31 -44 -91 -64q-11 -4 -2 -10q53 -26 66 -66l56 -165q5 -15 -11 -15h-136q-11 0 -15 11l-35 105q-22 64 -82 64h-8 l-29 -168q-1 -12 -14 -12h-133q-14 0 -12 14z" />
<glyph unicode="l" horiz-adv-x="319" d="M38 148l100 568q2 12 14 12h133q14 0 12 -14l-100 -566q-3 -19 11 -19h6q13 3 16 -9l22 -103q3 -12 -8 -16q-28 -12 -62 -12q-81 0 -119 42t-25 117z" />
<glyph unicode="m" horiz-adv-x="831" d="M15 14l81 465q2 12 14 12h70q11 0 15 -10l8 -16q9 -15 14 -15t23 13q53 39 115 39q59 0 104 -39q19 -16 29 -17t32 14q56 42 117 42q87 0 129 -51.5t26 -139.5l-53 -299q-1 -12 -14 -12h-133q-14 0 -12 14l51 289q5 31 -2 44.5t-31 13.5q-38 0 -64.5 -29t-35.5 -79 l-42 -241q-2 -12 -14 -12h-133q-14 0 -12 14l51 291q5 30 -2.5 43t-30.5 13q-39 0 -64.5 -28.5t-34.5 -79.5l-42 -241q-2 -12 -14 -12h-133q-14 0 -12 14z" />
<glyph unicode="n" horiz-adv-x="557" d="M15 14l81 465q2 12 14 12h70q10 0 16 -10l9 -20q7 -11 13 -10.5t21 11.5q55 40 121 40q91 0 132 -51t25 -140l-52 -299q-1 -12 -14 -12h-134q-14 0 -12 14l51 289q11 58 -36 58q-40 0 -67.5 -29t-36.5 -79l-42 -241q-2 -12 -14 -12h-133q-14 0 -12 14z" />
<glyph unicode="o" horiz-adv-x="561" d="M31 193q0 52 16 103.5t48 99t89 77t131 29.5q101 0 157 -54.5t56 -149.5q0 -40 -9 -81t-31 -82.5t-53.5 -73.5t-80.5 -52t-109 -20q-101 0 -157.5 54.5t-56.5 149.5zM186 204q0 -75 64 -75q59 0 91 52t32 106q0 74 -63 74q-42 0 -72 -28.5t-41 -62.5t-11 -66z" />
<glyph unicode="p" horiz-adv-x="579" d="M-24 -205l120 684q2 12 14 12h69q11 0 15 -10l8 -17q5 -10 8.5 -12.5t9 -0.5t17.5 11q53 40 121 40q89 0 138.5 -53t49.5 -146q0 -53 -15 -105t-46 -100.5t-86.5 -78.5t-127.5 -30q-47 0 -74 13l-23 11l-39 -220q-1 -12 -14 -12h-133q-14 0 -12 14zM195 146l19 -7 q23 -10 51 -10q43 0 73 28.5t41.5 63t11.5 67.5q0 73 -68 73q-42 0 -71 -26t-37 -72z" />
<glyph unicode="q" horiz-adv-x="573" d="M31 189q0 55 15.5 107.5t48 100t90.5 76.5t134 29q77 0 140 -27l85 -36q11 -5 9 -16l-111 -630q-2 -12 -14 -12h-133q-14 0 -12 14l17 97q11 63 47 120q7 10 2.5 14.5t-18.5 -2.5q-55 -35 -110 -35q-91 0 -140.5 53.5t-49.5 146.5zM186 199q0 -70 62 -70q45 0 77.5 36.5 t43.5 102.5l13 77l-14 5q-29 11 -54 11q-62 0 -95 -52t-33 -110z" />
<glyph unicode="r" horiz-adv-x="416" d="M15 14l81 465q2 12 14 12h70q10 0 16 -10l19 -39q5 -10 9 -11t15 8q38 34 74 47.5t88 15.5q15 0 12 -14l-20 -115q-1 -12 -14 -12q-83 -3 -123.5 -59.5t-67.5 -207.5l-14 -82q-2 -12 -14 -12h-133q-14 0 -12 14z" />
<glyph unicode="s" horiz-adv-x="495" d="M8 38l50 101q5 11 16 8l39 -10q53 -14 116 -14q57 0 57 34q0 18 -24 23l-81 20q-60 15 -88.5 43.5t-28.5 74.5q0 76 53 130t162 54q57 0 134 -18l50 -13q14 -3 8 -16l-48 -104q-5 -11 -17 -8l-45 12q-45 12 -87 12q-57 0 -57 -30q0 -14 20 -20l82 -20q119 -30 119 -125 q0 -33 -10.5 -63.5t-34 -58.5t-67 -44.5t-102.5 -16.5q-82 0 -155 19l-53 13q-14 5 -8 17z" />
<glyph unicode="t" horiz-adv-x="421" d="M52 366l19 113q1 12 14 12h53l19 110q1 10 12 13l142 45q8 2 11.5 -1.5t2.5 -10.5l-28 -156h112q14 0 12 -14l-20 -113q-1 -12 -14 -12h-113l-33 -182q-8 -41 19 -41q15 0 26 4q12 5 17 -7l30 -97q3 -11 -7 -17q-44 -23 -91 -23q-87 0 -127.5 48t-25.5 133l32 182h-50 q-14 0 -12 14z" />
<glyph unicode="u" horiz-adv-x="557" d="M40 180l52 299q2 12 14 12h134q14 0 12 -14l-51 -289q-11 -58 36 -58q40 0 67.5 29t36.5 79l42 241q1 12 14 12h133q14 0 12 -14l-81 -465q-1 -12 -14 -12h-70q-10 0 -16 10l-9 20q-7 11 -13 10.5t-21 -11.5q-55 -40 -121 -40q-91 0 -132 51t-25 140z" />
<glyph unicode="v" horiz-adv-x="570" d="M66 477q-3 14 11 14h137q12 0 14 -12l15 -82q21 -116 19 -210q0 -6 4 -8.5t8 0t6 8.5q29 92 93 210l45 85q4 9 15 9h142q18 0 9 -16l-100 -182q-95 -173 -145 -283q-4 -10 -15 -10h-162q-12 0 -13 12q-15 124 -46 281z" />
<glyph unicode="w" horiz-adv-x="835" d="M74 477q0 14 13 14h131q12 0 14 -12l7 -95q6 -97 6 -202q0 -6 3.5 -8.5t8.5 0t7 8.5q17 43 100 229l31 70q4 10 15 10h89q11 0 13 -12l7 -68q16 -159 19 -229q0 -6 4 -8.5t8.5 0t6.5 8.5q28 82 78 202l40 97q4 10 15 10h141q17 0 10 -15l-111 -247q-48 -103 -96 -219 q-4 -10 -15 -10h-169q-13 0 -14 13q-4 61 -6 84l-3 41q-4 49 -6 92q0 6 -2.5 8.5t-6 0t-5.5 -8.5q-48 -115 -56 -133q-6 -15 -18.5 -43.5t-18.5 -43.5q-4 -10 -15 -10h-166q-13 0 -14 13q-3 55 -19 216z" />
<glyph unicode="x" horiz-adv-x="554" d="M-1 16l112 154q41 53 82 75q8 4 0 9q-14 10 -29 29t-24 41l-58 152q-7 15 10 15h136q11 0 15 -10l40 -114q5 -18 16 0l80 116q5 8 16 8h151q8 0 10.5 -4.5t-2.5 -11.5l-110 -151q-38 -51 -81 -70q-6 -6 0 -11q3 -2 4 -3q31 -24 50 -70l58 -155q7 -15 -10 -15h-138 q-11 0 -15 11l-39 112q-6 16 -17 0l-80 -115q-5 -8 -16 -8h-153q-8 0 -10.5 4.5t2.5 11.5z" />
<glyph unicode="y" horiz-adv-x="570" d="M45 -204l53 99q35 65 37.5 144.5t-24.5 210.5l-45 227q-3 14 11 14h137q12 0 14 -12l20 -111q16 -91 14 -178q0 -8 3.5 -11t8 0t6.5 11q27 80 77 177l61 115q4 9 15 9h142q17 0 10 -16l-376 -685q-5 -9 -15 -9h-139q-18 0 -10 15z" />
<glyph unicode="z" horiz-adv-x="506" d="M11 24q29 34 71 93l103 153q22 37 60 71q11 11 -3 11h-152q-14 0 -12 14l20 113q2 12 14 12h381q11 0 14.5 -7.5t-3.5 -16.5q-34 -44 -66 -90l-105 -157q-28 -41 -60 -71q-11 -11 3 -11h156q18 0 9 -16l-62 -113q-5 -9 -15 -9h-342q-10 0 -13.5 7.5t2.5 16.5z" />
<glyph unicode="{" horiz-adv-x="413" d="M56 277l20 113q2 12 14 12h6q25 0 44.5 17t24.5 44l16 94q17 100 82.5 155.5t170.5 59.5q15 0 12 -14l-20 -115q-1 -10 -14 -12q-33 -4 -57.5 -27t-29.5 -57l-18 -95q-14 -74 -74 -112q-7 -4 -8.5 -5.5t-5.5 -4t-3.5 -4t1 -4t3.5 -4.5t8 -5q22 -13 31.5 -44t3.5 -69 l-16 -91q-12 -71 58 -77q13 -2 12 -15l-21 -112q-2 -12 -14 -12q-100 4 -148 64.5t-30 161.5l16 92q9 52 -39 52h-14q-14 0 -11 14z" />
<glyph unicode="|" horiz-adv-x="317" d="M7 -206l169 962q2 12 14 12h120q14 0 12 -14l-170 -962q-2 -12 -14 -12h-119q-14 0 -12 14z" />
<glyph unicode="}" horiz-adv-x="413" d="M-2 -93l20 115q1 10 14 12q33 4 57.5 27t29.5 57l18 95q14 74 74 112q7 4 8.5 5.5t5.5 4t3.5 4t-1 4t-3.5 4.5t-8 5q-22 13 -31.5 44t-3.5 69l16 91q12 71 -58 77q-13 1 -12 15l21 112q2 12 14 12q100 -4 148 -64.5t30 -161.5l-16 -92q-9 -52 39 -52h14q14 0 11 -14 l-20 -113q-2 -12 -14 -12h-6q-25 0 -44.5 -17t-24.5 -44l-16 -94q-17 -100 -82.5 -155.5t-170.5 -59.5q-15 0 -12 14z" />
<glyph unicode="~" horiz-adv-x="597" d="M51 268l82 108q57 77 136 77q35 0 59 -24l36 -37q7 -7 15 -7t16 11l34 47q5 8 16 8h130q8 0 10.5 -4.5t-2.5 -11.5l-81 -111q-54 -74 -135 -74q-32 0 -59 24l-41 37q-7 6 -11 6q-7 0 -17 -13l-34 -44q-5 -8 -16 -8h-130q-8 0 -10.5 4.5t2.5 11.5z" />
<glyph unicode="&#xa2;" horiz-adv-x="480" d="M65 411q0 98 50.5 184t154.5 114l17 98q1 12 14 12h119q14 0 12 -14l-16 -92q7 -2 80 -23q14 -5 8 -17l-51 -105q-5 -11 -17 -8l-36 11q-27 8 -48 8q-29 0 -52.5 -11.5t-38 -28.5t-24 -39.5t-13.5 -42.5t-4 -38q0 -72 71 -72q28 0 68 11l45 11q13 3 15 -11l14 -111 q1 -12 -11 -15l-53 -14q-21 -6 -42 -9l-17 -93q-2 -12 -14 -12h-119q-14 0 -11 14l18 105q-119 44 -119 188z" />
<glyph unicode="&#xa3;" horiz-adv-x="608" d="M33 30l24 32q39 52 53 134l13 74h-72q-14 0 -11 14l21 115q1 12 14 12h73l13 71q20 113 96 175.5t187 62.5q61 0 123 -25l30 -13q13 -5 7 -17l-61 -114q-6 -11 -17 -6l-25 10q-32 14 -64 14q-44 0 -79 -27t-42 -70l-11 -61h127q14 0 11 -14l-21 -115q-2 -12 -14 -12h-128 l-10 -58q-7 -36 -19 -62q-4 -6 -2.5 -9t7.5 -2q46 6 120 6h153q14 0 11 -14l-21 -119q-1 -12 -14 -12h-457q-10 0 -16 10t1 20z" />
<glyph unicode="&#xa5;" horiz-adv-x="709" d="M87 153l15 85q2 12 14 12h141q-4 30 -8 46h-123q-14 0 -11 14l15 85q2 12 14 12h71q-20 57 -59 164.5t-44 122.5t11 15h140q11 0 15 -10l46 -127q36 -95 44 -156q2 -9 8 -9t11 9q48 91 94 156l92 129q5 8 16 8h158q8 0 10 -4.5t-2 -11.5q-10 -13 -86.5 -121t-116.5 -165 h52q14 0 11 -14l-15 -85q-2 -12 -14 -12h-108q-15 -26 -24 -46h122q14 0 11 -14l-15 -85q-2 -12 -14 -12h-141q-1 -5 -22 -127q-1 -12 -14 -12h-136q-14 0 -12 14l16 93l5 32h-155q-14 0 -12 14z" />
<glyph unicode="&#xa8;" horiz-adv-x="445" d="M104 654q0 45 22.5 69t63.5 24q35 0 54.5 -18.5t19.5 -52.5q0 -39 -20.5 -66.5t-64.5 -27.5q-36 0 -55.5 19t-19.5 53zM305 654q0 45 22.5 69t63.5 24q35 0 54.5 -18.5t19.5 -52.5q0 -39 -20.5 -66.5t-64.5 -27.5q-36 0 -55.5 19t-19.5 53z" />
<glyph unicode="&#xa9;" horiz-adv-x="789" d="M38 354q0 165 98 265.5t258 100.5q161 0 259 -100.5t98 -265.5q0 -164 -98 -264.5t-259 -100.5q-160 0 -258 100.5t-98 264.5zM119 354q0 -128 75.5 -206.5t199.5 -78.5t200 78.5t76 206.5t-76 206t-200 78t-199.5 -78t-75.5 -206zM221 355q0 90 47 143t127 53 q42 0 82 -12l21 -7q11 -4 8 -16l-19 -54q-5 -12 -16 -8l-20 6q-27 8 -56 8q-40 0 -63 -29.5t-23 -83.5t23 -84t63 -30q35 0 56 7l20 6q12 3 16 -9l19 -52q3 -12 -8 -16l-21 -7q-39 -11 -82 -11q-80 0 -127 53t-47 143z" />
<glyph unicode="&#xab;" horiz-adv-x="676" d="M59 245v2q0 9 6 16l148 176q6 7 16 7h141q8 0 10.5 -4.5t-3.5 -11.5l-161 -187l92 -182q8 -15 -9 -15h-133q-10 0 -16 9l-87 174q-4 8 -4 16zM322 245v2q0 9 6 16l148 176q6 7 16 7h141q8 0 10.5 -4.5t-3.5 -11.5l-161 -187l92 -182q8 -15 -9 -15h-133q-10 0 -16 9 l-87 174q-4 8 -4 16z" />
<glyph unicode="&#xad;" d="M60 205l20 112q2 12 14 12h275q14 0 11 -14l-20 -112q-2 -12 -14 -12h-275q-14 0 -11 14z" />
<glyph unicode="&#xae;" horiz-adv-x="789" d="M38 354q0 165 98 265.5t258 100.5q161 0 259 -100.5t98 -265.5q0 -164 -98 -264.5t-259 -100.5q-160 0 -258 100.5t-98 264.5zM119 354q0 -128 75.5 -206.5t199.5 -78.5t200 78.5t76 206.5t-76 206t-200 78t-199.5 -78t-75.5 -206zM257 184v340q0 13 13 13h139 q62 0 95 -29.5t33 -82.5q0 -35 -17.5 -58.5t-42.5 -32.5q-11 -4 -1 -10q27 -17 48 -60l33 -78q5 -15 -10 -15h-64q-11 0 -15 10l-20 48q-17 39 -34.5 54.5t-57.5 15.5h-13v-115q0 -13 -13 -13h-60q-13 0 -13 13zM343 374h53q27 0 44 11.5t17 31.5t-14 30t-34 10h-66v-83z " />
<glyph unicode="&#xb4;" horiz-adv-x="341" d="M111 573l86 146q5 9 15 9h146q8 0 10.5 -4.5t-2.5 -11.5l-125 -148q-6 -7 -16 -7h-105q-8 0 -10.5 4.5t1.5 11.5z" />
<glyph unicode="&#xb8;" horiz-adv-x="349" d="M1 -199l37 73q6 11 18 7l12 -5q11 -4 27 -4q22 0 22 22q0 17 -19 17h-35q-10 0 -16 9q-2 7 2 14l42 82q6 9 16 9h55q8 0 10.5 -4.5t-1.5 -11.5l-24 -40h7q25 0 40.5 -19t15.5 -51q0 -50 -33.5 -89.5t-100.5 -39.5q-26 0 -53 9l-15 5q-14 5 -7 17z" />
<glyph unicode="&#xbb;" horiz-adv-x="746" d="M106 63l161 187l-92 182q-8 15 9 15h133q10 0 16 -9l87 -174q4 -8 4 -16v-2q0 -8 -6 -16l-148 -176q-6 -7 -16 -7h-141q-8 0 -10.5 4.5t3.5 11.5zM369 63l161 187l-92 182q-8 15 9 15h133q10 0 16 -9l87 -174q4 -8 4 -16v-2q0 -8 -6 -16l-148 -176q-6 -7 -16 -7h-141 q-8 0 -10.5 4.5t3.5 11.5z" />
<glyph unicode="&#xd3;" horiz-adv-x="729" d="M58 270q0 57 12.5 116.5t41.5 120t71.5 107.5t109 76.5t146.5 29.5q128 0 199.5 -74.5t71.5 -205.5q0 -57 -12.5 -116.5t-41.5 -120t-71.5 -107.5t-108.5 -77t-146 -30q-129 0 -200.5 75t-71.5 206zM221 276q0 -68 30 -105.5t85 -37.5q54 0 96.5 31t66.5 79t36 97.5 t12 94.5q0 68 -29.5 104t-84.5 36t-98 -30.5t-66.5 -77.5t-35.5 -96.5t-12 -94.5zM382 801l87 118q5 8 16 8h171q9 0 11 -5t-5 -11l-134 -120q-8 -6 -16 -6h-122q-8 0 -10.5 4.5t2.5 11.5z" />
<glyph unicode="&#xf3;" horiz-adv-x="561" d="M31 193q0 52 16 103.5t48 99t89 77t131 29.5q101 0 157 -54.5t56 -149.5q0 -40 -9 -81t-31 -82.5t-53.5 -73.5t-80.5 -52t-109 -20q-101 0 -157.5 54.5t-56.5 149.5zM186 204q0 -75 64 -75q59 0 91 52t32 106q0 74 -63 74q-42 0 -72 -28.5t-41 -62.5t-11 -66zM266 573 l86 146q4 9 15 9h146q8 0 10.5 -4.5t-2.5 -11.5l-125 -148q-6 -7 -16 -7h-105q-8 0 -10.5 4.5t1.5 11.5z" />
<glyph unicode="&#x104;" horiz-adv-x="748" d="M-10 15l207 382q93 171 150 302q4 10 15 10h186q13 0 14 -13q8 -118 42 -299l75 -389q1 -8 0 -16q-4 -14 -44 -45l-57 -42q-12 -9 -12 -19q0 -9 9 -9q15 0 36 8q13 3 16 -10l14 -75q1 -12 -10 -16l-18 -5q-24 -9 -58 -9q-50 0 -80 21t-30 58q0 51 51 90l35 27 q14 10 18 18t-1 12t-17 4q-13 0 -14 12l-16 82h-294l-45 -85q-4 -9 -15 -9h-147q-17 0 -10 15zM283 235h192l-8 40q-29 176 -29 238q-1 9 -8 9t-11 -9q-33 -85 -115 -238z" />
<glyph unicode="&#x105;" horiz-adv-x="573" d="M31 178q0 55 17 109.5t51.5 104t96 80t140.5 30.5q42 0 103 -13l109 -24q11 -3 10 -16l-78 -449q-2 -13 -11 -23.5t-34 -29.5l-57 -42q-12 -9 -12 -19q0 -9 9 -9q10 0 35 7q13 5 16 -9l15 -75q1 -12 -10 -16l-18 -5q-24 -9 -58 -9q-51 0 -80.5 21t-29.5 58q0 52 52 90 l56 40q28 21 30 28l-5 37q-2 13 -5 17t-9.5 1t-19.5 -17q-53 -56 -132 -56q-85 0 -133 50t-48 139zM186 192q0 -29 15.5 -46t42.5 -17q46 0 80.5 50t51.5 136l7 37l-16 4q-19 5 -38 5q-47 0 -81 -31t-48 -68t-14 -70z" />
<glyph unicode="&#x106;" horiz-adv-x="634" d="M58 272q0 58 12.5 117.5t42.5 119.5t73.5 106.5t111.5 75.5t150 29q67 0 148 -27l40 -13q13 -5 7 -18l-55 -107q-5 -12 -16 -7l-45 15q-33 12 -90 12q-55 0 -99 -30t-68 -76.5t-36.5 -95t-12.5 -92.5q0 -148 125 -148q46 0 110 18l49 14q13 5 16 -9l22 -117 q2 -12 -10 -15l-54 -16q-66 -19 -149 -19q-128 0 -200 75.5t-72 207.5zM358 799l87 118q5 8 16 8h171q9 0 11 -5t-5 -11l-134 -120q-7 -6 -16 -6h-122q-8 0 -10.5 4.5t2.5 11.5z" />
<glyph unicode="&#x107;" horiz-adv-x="480" d="M31 193q0 54 15.5 105.5t48 98.5t91.5 76t137 29q38 0 82 -13l57 -17q14 -5 8 -17l-51 -105q-5 -11 -17 -8l-36 11q-27 8 -48 8q-29 0 -52.5 -11.5t-38 -28.5t-24 -39.5t-13.5 -42.5t-4 -38q0 -72 71 -72q28 0 68 11l45 11q13 3 15 -11l14 -111q1 -12 -11 -15l-53 -14 q-37 -11 -85 -11q-106 0 -162.5 54t-56.5 150zM248 573l86 146q4 9 15 9h146q8 0 10.5 -4.5t-2.5 -11.5l-125 -148q-6 -7 -16 -7h-105q-8 0 -10.5 4.5t1.5 11.5z" />
<glyph unicode="&#x118;" horiz-adv-x="615" d="M25 14l120 683q1 12 14 12h482q17 0 10 -15l-53 -117q-4 -10 -15 -10h-298l-24 -132h245q14 0 12 -14l-21 -115q-1 -12 -14 -12h-246l-28 -153h327q14 0 12 -14l-20 -118q-4 -11 -9 -15l-104 -89q-12 -12 -12 -19q0 -9 9 -9q13 0 37 8q13 5 16 -9l14 -75q1 -12 -10 -16 l-19 -6q-24 -9 -58 -9q-50 0 -80 21t-30 58q0 44 55 90l30 27q28 31 9 34h-339q-14 0 -12 14z" />
<glyph unicode="&#x119;" horiz-adv-x="515" d="M32 192q0 54 15.5 105.5t47 99t88 76.5t130.5 29q86 0 134 -39t48 -108q0 -67 -37 -108t-141 -54l-134 -17q6 -52 71 -52q39 0 81 9l58 13q13 3 15 -11l11 -112q4 -2 -10 -12l-143 -109q-9 -6 -9 -17q0 -8 10 -8q6 0 26 5l12 4q14 3 15 -10l13 -75q1 -12 -10 -16l-23 -7 q-28 -8 -54 -8q-52 0 -81 20t-29 56q0 57 57 98l46 34q13 8 8 10q-1 1 -4 1q-102 2 -156.5 55.5t-54.5 147.5zM191 278l113 14q43 7 43 41t-42 34q-80 0 -114 -89z" />
<glyph unicode="&#x141;" horiz-adv-x="642" d="M30 215l23 127q1 9 11 14l95 39l53 302q2 12 14 12h136q14 0 12 -14l-40 -228l161 67q7 3 11.5 0t2.5 -11l-23 -127q-1 -9 -11 -14l-168 -69l-30 -169h289q14 0 12 -14l-20 -118q-2 -12 -14 -12h-440q-14 0 -12 14l40 226l-88 -36q-7 -3 -11.5 0t-2.5 11z" />
<glyph unicode="&#x142;" horiz-adv-x="407" d="M32 253l21 120q1 10 12 13l79 28l53 302q1 12 14 12h133q14 0 12 -14l-43 -240l84 30q8 2 11.5 -1t2.5 -11l-22 -122q-1 -10 -12 -13l-90 -32l-31 -177q-3 -19 11 -19h6q13 3 16 -9l22 -103q3 -12 -8 -16q-29 -12 -62 -12q-81 0 -119 42t-25 117l21 118l-72 -25 q-8 -3 -11.5 0.5t-2.5 11.5z" />
<glyph unicode="&#x143;" horiz-adv-x="732" d="M25 14l120 683q2 12 14 12h170q11 0 14 -11q7 -26 32 -105l93 -274q20 -60 29 -89q4 -12 10.5 -9.5t6.5 13.5q1 76 20 180l51 283q2 12 14 12h136q14 0 12 -14l-121 -683q-1 -12 -14 -12h-170q-11 0 -14 11q-15 54 -32 105q-10 31 -23.5 71.5t-25 74.5t-24 71t-25 74.5 t-23.5 71.5q-4 11 -11 8.5t-8 -12.5q-3 -86 -20 -182l-49 -281q-1 -12 -14 -12h-136q-14 0 -12 14zM375 801l87 118q5 8 16 8h171q9 0 11 -5t-5 -11l-134 -120q-7 -6 -16 -6h-122q-8 0 -10.5 4.5t2.5 11.5z" />
<glyph unicode="&#x144;" horiz-adv-x="557" d="M15 14l81 465q2 12 14 12h70q10 0 16 -10l9 -20q7 -11 13 -10.5t21 11.5q55 40 121 40q91 0 132 -51t25 -140l-52 -299q-1 -12 -14 -12h-134q-14 0 -12 14l51 289q11 58 -36 58q-40 0 -67.5 -29t-36.5 -79l-42 -241q-2 -12 -14 -12h-133q-14 0 -12 14zM274 573l86 146 q4 9 15 9h146q8 0 10.5 -4.5t-2.5 -11.5l-125 -148q-6 -7 -16 -7h-105q-8 0 -10.5 4.5t1.5 11.5z" />
<glyph unicode="&#x15a;" horiz-adv-x="618" d="M12 65l55 106q7 11 17 7l59 -20q75 -25 144 -25q121 0 121 73q0 45 -73 73l-85 34q-84 34 -119 69.5t-35 95.5q0 45 15 86t47 77t91 57.5t138 21.5q74 0 161 -31l62 -21q14 -5 6 -17l-57 -107q-7 -11 -17 -7l-56 19q-57 19 -111 19q-55 0 -85.5 -19.5t-30.5 -55.5 q0 -18 16 -32t54 -29l79 -31q86 -34 124.5 -73t38.5 -101q0 -47 -14 -87.5t-46 -77.5t-93 -58.5t-145 -21.5q-82 0 -190 37l-64 21q-13 5 -7 18zM318 799l87 118q5 8 16 8h171q9 0 11 -5t-5 -11l-134 -120q-7 -6 -16 -6h-122q-8 0 -10.5 4.5t2.5 11.5z" />
<glyph unicode="&#x15b;" horiz-adv-x="495" d="M8 38l50 101q5 11 16 8l39 -10q53 -14 116 -14q57 0 57 34q0 18 -24 23l-81 20q-60 15 -88.5 43.5t-28.5 74.5q0 76 53 130t162 54q57 0 134 -18l50 -13q14 -3 8 -16l-48 -104q-5 -11 -17 -8l-45 12q-45 12 -87 12q-57 0 -57 -30q0 -14 20 -20l82 -20q119 -30 119 -125 q0 -33 -10.5 -63.5t-34 -58.5t-67 -44.5t-102.5 -16.5q-82 0 -155 19l-53 13q-14 5 -8 17zM227 573l86 146q5 9 15 9h146q8 0 10.5 -4.5t-2.5 -11.5l-125 -148q-6 -7 -16 -7h-105q-8 0 -10.5 4.5t1.5 11.5z" />
<glyph unicode="&#x179;" horiz-adv-x="648" d="M14 11q-4 10 3 18q62 75 127 171l165 237q49 72 85 111q7 8 5 13.5t-11 5.5h-256q-14 0 -12 14l21 116q1 12 14 12h506q11 0 15 -10l1 -1q4 -10 -3 -18q-88 -110 -129 -170l-166 -240q-74 -102 -82 -112q-6 -8 -4 -12.5t11 -4.5h250q17 0 10 -15l-53 -116q-4 -10 -15 -10 h-466q-11 0 -15 10zM336 801l87 118q5 8 16 8h171q9 0 11 -5t-5 -11l-134 -120q-8 -6 -16 -6h-122q-8 0 -10.5 4.5t2.5 11.5z" />
<glyph unicode="&#x17a;" horiz-adv-x="506" d="M11 24q29 34 71 93l103 153q22 37 60 71q11 11 -3 11h-152q-14 0 -12 14l20 113q2 12 14 12h381q11 0 14.5 -7.5t-3.5 -16.5q-34 -44 -66 -90l-105 -157q-28 -41 -60 -71q-11 -11 3 -11h156q18 0 9 -16l-62 -113q-5 -9 -15 -9h-342q-10 0 -13.5 7.5t2.5 16.5zM246 573 l86 146q4 9 15 9h146q8 0 10.5 -4.5t-2.5 -11.5l-125 -148q-6 -7 -16 -7h-105q-8 0 -10.5 4.5t1.5 11.5z" />
<glyph unicode="&#x17b;" horiz-adv-x="648" d="M14 11q-4 10 3 18q62 75 127 171l165 237q49 72 85 111q7 8 5 13.5t-11 5.5h-256q-14 0 -12 14l21 116q1 12 14 12h506q11 0 15 -10l1 -1q4 -10 -3 -18q-88 -110 -129 -170l-166 -240q-74 -102 -82 -112q-6 -8 -4 -12.5t11 -4.5h250q17 0 10 -15l-53 -116q-4 -10 -15 -10 h-466q-11 0 -15 10zM328 837q0 41 26.5 71t87.5 30q84 0 84 -64q0 -38 -27 -69t-86 -31q-85 0 -85 63z" />
<glyph unicode="&#x17c;" horiz-adv-x="506" d="M11 24q29 34 71 93l103 153q22 37 60 71q11 11 -3 11h-152q-14 0 -12 14l20 113q2 12 14 12h381q11 0 14.5 -7.5t-3.5 -16.5q-34 -44 -66 -90l-105 -157q-28 -41 -60 -71q-11 -11 3 -11h156q18 0 9 -16l-62 -113q-5 -9 -15 -9h-342q-10 0 -13.5 7.5t2.5 16.5zM241 637 q0 50 25 76.5t70 26.5q40 0 61 -20.5t21 -58.5q0 -43 -23 -73.5t-71 -30.5q-40 0 -61.5 21t-21.5 59z" />
<glyph unicode="&#x2c6;" horiz-adv-x="461" d="M114 573l124 148q6 7 16 7h117q10 0 16 -10l71 -146q8 -15 -9 -15h-97q-10 0 -16 8l-41 62l-63 -63q-7 -7 -16 -7h-94q-8 0 -10.5 4.5t2.5 11.5z" />
<glyph unicode="&#x2da;" horiz-adv-x="291" d="M109 623q0 46 30 79.5t90 33.5q43 0 67 -20t24 -56q0 -42 -29.5 -77t-89.5 -35q-45 0 -68.5 19.5t-23.5 55.5zM179 632q0 -25 28 -25q19 0 30.5 12.5t11.5 33.5q0 24 -26 24q-19 0 -31 -12.5t-13 -32.5z" />
<glyph unicode="&#x2dc;" horiz-adv-x="452" d="M106 594l36 53q41 63 115 63q29 0 52 -18l24 -19q9 -7 16 -7q9 0 21 16l12 16q5 8 16 8h79q8 0 10.5 -4.5t-1.5 -11.5l-36 -54q-40 -62 -114 -62q-27 0 -51 17l-24 16q-13 9 -19 9q-9 0 -20 -15l-12 -15q-5 -8 -16 -8h-79q-18 0 -9 16z" />
<glyph unicode="&#x2000;" horiz-adv-x="469" />
<glyph unicode="&#x2001;" horiz-adv-x="938" />
<glyph unicode="&#x2002;" horiz-adv-x="469" />
<glyph unicode="&#x2003;" horiz-adv-x="938" />
<glyph unicode="&#x2004;" horiz-adv-x="312" />
<glyph unicode="&#x2005;" horiz-adv-x="234" />
<glyph unicode="&#x2006;" horiz-adv-x="156" />
<glyph unicode="&#x2007;" horiz-adv-x="156" />
<glyph unicode="&#x2008;" horiz-adv-x="117" />
<glyph unicode="&#x2009;" horiz-adv-x="187" />
<glyph unicode="&#x200a;" horiz-adv-x="52" />
<glyph unicode="&#x2010;" d="M60 205l20 112q2 12 14 12h275q14 0 11 -14l-20 -112q-2 -12 -14 -12h-275q-14 0 -11 14z" />
<glyph unicode="&#x2011;" d="M60 205l20 112q2 12 14 12h275q14 0 11 -14l-20 -112q-2 -12 -14 -12h-275q-14 0 -11 14z" />
<glyph unicode="&#x2012;" d="M60 205l20 112q2 12 14 12h275q14 0 11 -14l-20 -112q-2 -12 -14 -12h-275q-14 0 -11 14z" />
<glyph unicode="&#x2013;" horiz-adv-x="698" d="M60 205l20 112q2 12 14 12h539q14 0 11 -14l-20 -112q-2 -12 -14 -12h-539q-14 0 -11 14z" />
<glyph unicode="&#x2014;" horiz-adv-x="845" d="M60 205l20 112q2 12 14 12h685q14 0 12 -14l-20 -112q-1 -12 -14 -12h-686q-14 0 -11 14z" />
<glyph unicode="&#x2018;" horiz-adv-x="266" d="M99 558q10 60 82 131l42 39h87l-64 -62q-17 -16 -17.5 -25.5t14.5 -16.5q42 -24 32 -78q-7 -41 -34.5 -63.5t-69.5 -22.5q-43 0 -62 25.5t-10 72.5z" />
<glyph unicode="&#x2019;" horiz-adv-x="266" d="M79 466l64 62q17 16 17.5 25.5t-14.5 16.5q-42 24 -32 78q7 41 34.5 63.5t69.5 22.5q43 0 62 -25.5t10 -72.5q-10 -60 -82 -131l-42 -39h-87z" />
<glyph unicode="&#x201a;" horiz-adv-x="266" d="M-19 -93l64 62q17 16 17.5 25.5t-14.5 16.5q-42 24 -32 78q7 41 34.5 63.5t69.5 22.5q43 0 62 -25.5t10 -72.5q-10 -60 -82 -131l-42 -39h-87z" />
<glyph unicode="&#x201c;" horiz-adv-x="495" d="M99 558q10 60 82 131l42 39h87l-64 -62q-17 -16 -17.5 -25.5t14.5 -16.5q42 -24 32 -78q-7 -41 -34.5 -63.5t-69.5 -22.5q-43 0 -62 25.5t-10 72.5zM328 558q10 60 82 131l42 39h87l-64 -62q-17 -16 -17.5 -25.5t14.5 -16.5q42 -24 32 -78q-7 -41 -34.5 -63.5 t-69.5 -22.5q-43 0 -62 25.5t-10 72.5z" />
<glyph unicode="&#x201d;" horiz-adv-x="495" d="M79 466l64 62q17 16 17.5 25.5t-14.5 16.5q-42 24 -32 78q7 41 34.5 63.5t69.5 22.5q43 0 62 -25.5t10 -72.5q-10 -60 -82 -131l-42 -39h-87zM308 466l64 62q17 16 17.5 25.5t-14.5 16.5q-42 24 -32 78q7 41 34.5 63.5t69.5 22.5q43 0 62 -25.5t10 -72.5 q-10 -60 -82 -131l-42 -39h-87z" />
<glyph unicode="&#x201e;" horiz-adv-x="495" d="M-19 -93l64 62q17 16 17.5 25.5t-14.5 16.5q-42 24 -32 78q7 41 34.5 63.5t69.5 22.5q43 0 62 -25.5t10 -72.5q-10 -60 -82 -131l-42 -39h-87zM210 -93l64 62q17 16 17.5 25.5t-14.5 16.5q-42 24 -32 78q7 41 34.5 63.5t69.5 22.5q43 0 62 -25.5t10 -72.5 q-10 -60 -82 -131l-42 -39h-87z" />
<glyph unicode="&#x2026;" horiz-adv-x="737" d="M23 92q15 83 96 83q47 0 69.5 -27.5t14.5 -75.5q-16 -83 -97 -83q-46 0 -68.5 28t-14.5 75zM255 92q15 83 96 83q47 0 69.5 -27.5t14.5 -75.5q-16 -83 -97 -83q-46 0 -68.5 28t-14.5 75zM486 92q15 83 96 83q47 0 69.5 -27.5t14.5 -75.5q-16 -83 -97 -83q-46 0 -68.5 28 t-14.5 75z" />
<glyph unicode="&#x202f;" horiz-adv-x="187" />
<glyph unicode="&#x2039;" horiz-adv-x="413" d="M59 245v2q0 9 6 16l148 176q6 7 16 7h141q8 0 10.5 -4.5t-3.5 -11.5l-161 -187l92 -182q8 -15 -9 -15h-133q-10 0 -16 9l-87 174q-4 8 -4 16z" />
<glyph unicode="&#x203a;" horiz-adv-x="413" d="M36 63l161 187l-92 182q-8 15 9 15h133q10 0 16 -9l87 -174q4 -8 4 -16v-2q0 -8 -6 -16l-148 -176q-6 -7 -16 -7h-141q-8 0 -10.5 4.5t3.5 11.5z" />
<glyph unicode="&#x205f;" horiz-adv-x="234" />
<glyph unicode="&#x20ac;" horiz-adv-x="711" d="M34 244l14 77q2 12 14 12h76q3 27 9 54h-73q-14 0 -12 14l13 77q1 12 14 12h91q46 103 131.5 166.5t212.5 63.5q67 0 148 -27l40 -13q13 -5 7 -18l-55 -107q-5 -12 -16 -7l-45 15q-33 12 -90 12q-94 0 -153 -85h184q8 0 10.5 -4.5t-1.5 -11.5l-44 -78q-5 -9 -15 -9h-182 q-8 -30 -11 -54h159q8 0 10.5 -4.5t-1.5 -11.5l-45 -78q-4 -9 -15 -9h-108q19 -97 121 -97q46 0 110 18l49 14q13 5 16 -9l22 -117q2 -12 -10 -15l-54 -16q-66 -19 -149 -19q-118 0 -188.5 64t-81.5 177h-90q-14 0 -12 14z" />
<glyph unicode="&#x2122;" horiz-adv-x="955" d="M24 620v76q0 13 13 13h338q13 0 13 -13v-76q0 -13 -13 -13h-114v-283q0 -13 -13 -13h-85q-13 0 -13 13v283h-113q-13 0 -13 13zM448 324v372q0 13 13 13h132q11 0 15 -11q10 -29 11 -31l13 -34q2 -5 18.5 -47.5t20.5 -60.5q1 -3 2.5 -4t3 0t2.5 4q3 13 39 108l13 34 q1 5 4.5 16t4.5 15q4 11 15 11h134q13 0 13 -13v-372q0 -13 -13 -13h-85q-13 0 -13 13v68q0 105 11 165q1 6 -3.5 7.5t-6.5 -3.5q-3 -9 -10 -25.5t-9 -20.5l-27 -69q-16 -37 -17 -42q-4 -10 -15 -10h-79q-11 0 -14 11q-3 7 -16 41l-27 69q-12 26 -20 46q-3 5 -7.5 3.5 t-3.5 -7.5q13 -71 13 -165v-68q0 -13 -13 -13h-86q-13 0 -13 13z" />
<glyph unicode="&#xe000;" horiz-adv-x="490" d="M0 0v490h490v-490h-490z" />
</font>
</defs>
</svg>
